<svg width="132" height="64" viewBox="0 0 132 64" fill="none" xmlns="http://www.w3.org/2000/svg">
<path d="M100.637 16.3814C100.358 16.3273 100.069 16.3531 99.8035 16.4556C99.5382 16.5582 99.3071 16.7335 99.1368 16.9614C98.7096 17.4576 98.1766 17.8517 97.5769 18.1144C97.4845 18.1543 97.4012 18.2128 97.3324 18.2863C97.2636 18.3598 97.2107 18.4466 97.1769 18.5414C96.9817 19.0079 96.7497 19.458 96.4829 19.8874C96.2634 20.1752 96.1566 20.5334 96.1829 20.8944C96.2049 21.1234 96.2829 21.4124 96.1769 21.5754C96.0464 21.7905 95.964 22.0314 95.9355 22.2813C95.9071 22.5313 95.9331 22.7845 96.0118 23.0234C96.0183 23.0809 96.0183 23.139 96.0118 23.1964C96.0118 23.6454 96.0258 24.0964 96.0118 24.5434C96.0023 24.714 95.9686 24.8823 95.9119 25.0434C95.7519 25.5434 95.5729 26.0284 95.4119 26.5234C95.3459 26.7234 95.4669 26.8444 95.6678 26.7624C95.8102 26.6945 95.9412 26.6047 96.0559 26.4964C96.5939 26.0374 97.0619 25.5054 97.6489 25.0964C98.0985 24.7469 98.4403 24.2776 98.6349 23.7424C98.6814 23.6141 98.7534 23.4964 98.8466 23.3966C98.9397 23.2967 99.052 23.2168 99.1769 23.1614C99.5723 22.9797 99.9161 22.7019 100.177 22.3534C100.422 22.0497 100.693 21.7674 100.986 21.5094C101.281 21.2749 101.505 20.9634 101.634 20.6094C101.742 20.2017 101.945 19.825 102.225 19.5094C102.263 19.4654 102.292 19.4149 102.312 19.3604C102.542 18.8447 102.849 18.3667 103.222 17.9424C103.321 17.8384 103.394 17.7112 103.432 17.5724C103.511 17.1455 103.681 16.7409 103.932 16.3864C104.084 16.1614 104.011 15.9664 103.738 15.8864C103.514 15.8264 103.285 15.7882 103.054 15.7724C102.853 15.7407 102.648 15.7497 102.45 15.7988C102.253 15.8479 102.067 15.9362 101.905 16.0584C101.727 16.196 101.523 16.2959 101.305 16.3519C101.087 16.408 100.86 16.4191 100.638 16.3844L100.637 16.3814ZM95.0009 23.5594C95.0134 23.3262 95.0118 23.0925 94.9958 22.8594C94.9418 22.4204 94.8559 21.9954 94.3239 21.8594C94.1568 21.8089 94.0005 21.7279 93.8629 21.6204C93.7505 21.5304 93.611 21.4808 93.4669 21.4797C93.3229 21.4786 93.1826 21.5261 93.0688 21.6144C92.5978 21.9297 92.0668 22.1442 91.5089 22.2444C91.3419 22.2893 91.1872 22.3709 91.0559 22.4834C90.5632 22.8183 89.9879 23.0113 89.3929 23.0414C89.2198 23.0345 89.0471 23.0657 88.8873 23.1327C88.7275 23.1998 88.5843 23.3011 88.4679 23.4294C88.3172 23.6174 88.1203 23.7631 87.8965 23.8523C87.6727 23.9415 87.4296 23.9712 87.1909 23.9384C86.9609 23.9164 86.7329 23.8814 86.5039 23.8524C86.3652 23.8145 86.2215 23.7983 86.0779 23.8044C85.2557 23.8981 84.423 23.7889 83.6528 23.4864C83.3306 23.4124 83.0022 23.3685 82.6719 23.3554C82.569 23.3468 82.466 23.3689 82.3757 23.4189C82.2855 23.4689 82.2121 23.5447 82.1649 23.6364C82.0787 23.7799 81.9626 23.9032 81.8246 23.9979C81.6866 24.0927 81.5298 24.1566 81.3649 24.1854C81.2722 24.2014 81.1853 24.2408 81.1123 24.3C81.0393 24.3592 80.9826 24.4361 80.9479 24.5234C80.8829 24.6688 80.8006 24.8058 80.7029 24.9314C80.3104 25.3776 80.0132 25.8992 79.8298 26.4644C79.8245 26.4933 79.8111 26.5201 79.7909 26.5414C79.6665 26.6729 79.5757 26.8325 79.5262 27.0066C79.4768 27.1807 79.4701 27.3642 79.5068 27.5414C79.5215 27.7585 79.5215 27.9763 79.5068 28.1934C79.4978 28.3649 79.45 28.5321 79.3669 28.6824C79.0469 29.1824 78.7228 29.6764 78.3608 30.1434C77.4078 31.3714 77.4369 31.2364 77.4609 32.7874C77.4708 32.9692 77.4446 33.151 77.384 33.3226C77.3235 33.4942 77.2296 33.6522 77.1079 33.7874C76.9619 33.9474 76.8279 34.1214 76.6699 34.2684C76.2358 34.5629 75.9176 34.9991 75.7699 35.5024C75.6796 35.7579 75.6264 36.0249 75.6119 36.2954C75.6258 36.5129 75.5689 36.729 75.4498 36.9114C75.1832 37.447 74.7631 37.8909 74.2429 38.1864C73.9099 38.3554 73.9709 38.7064 74.2909 38.8364C74.8143 39.0608 75.403 39.0801 75.9399 38.8904C76.2145 38.7979 76.4818 38.6853 76.7399 38.5534C76.8786 38.4824 76.9944 38.3735 77.0739 38.2394C77.1988 37.9936 77.398 37.7931 77.6429 37.6664C77.7055 37.6342 77.7605 37.5891 77.8044 37.5342C77.8484 37.4792 77.8803 37.4156 77.8979 37.3474C77.9597 37.0207 78.0766 36.7068 78.2439 36.4194C78.3278 36.1192 78.4751 35.8405 78.6761 35.6022C78.8772 35.364 79.1271 35.1717 79.4089 35.0384C79.5218 34.9731 79.6273 34.896 79.7239 34.8084C79.9287 34.6471 80.1476 34.5045 80.3779 34.3824C81.1328 34.0147 81.8562 33.5856 82.5409 33.0994C82.6714 33.0112 82.8188 32.9513 82.9739 32.9234C83.6064 32.8245 84.2041 32.5683 84.7119 32.1784C85.1563 31.855 85.6194 31.5581 86.0989 31.2894C86.3374 31.1524 86.5991 31.0602 86.8708 31.0174C87.2138 30.9595 87.5403 30.8281 87.8279 30.6324C88.1209 30.4464 88.4209 30.2704 88.7279 30.1014C89.2378 29.862 89.7114 29.552 90.1349 29.1804C90.4872 28.8814 90.865 28.6137 91.2639 28.3804C91.4769 28.2334 91.6999 28.0974 91.9019 27.9364C92.4669 27.4894 93.0208 27.0294 93.5848 26.5814C93.6728 26.5314 93.7652 26.4895 93.8608 26.4564C94.0377 26.3899 94.1966 26.2828 94.3247 26.1439C94.4529 26.005 94.5468 25.8381 94.5989 25.6564C94.6484 25.2537 94.7701 24.8631 94.9579 24.5034C94.9997 24.3953 95.0144 24.2786 95.0009 24.1634C95.0069 23.9634 95.0009 23.7574 95.0009 23.5544V23.5594ZM0.053833 39.8244C0.0317962 39.7448 0.0160836 39.6635 0.00683594 39.5814C0.00683594 39.2814 0.00683594 38.9814 0.00683594 38.6704C0.309691 38.5118 0.623207 38.3741 0.944946 38.2584C1.22586 38.1826 1.47391 38.0164 1.65088 37.7854C1.98665 37.3491 2.39986 36.9782 2.86987 36.6914C3.27673 36.4157 3.65674 36.1023 4.00488 35.7554C4.25605 35.493 4.56392 35.2916 4.90491 35.1664C5.65326 34.9194 6.28782 34.4115 6.69287 33.7354C6.92976 33.351 7.27147 33.0423 7.67786 32.8454C7.90447 32.7406 8.08136 32.5515 8.1709 32.3184C8.2859 32.0384 8.45883 31.7824 8.57983 31.5034C8.68856 31.2564 8.86642 31.0461 9.09192 30.8977C9.31742 30.7494 9.58093 30.6694 9.85083 30.6674C9.87983 30.6674 9.90887 30.6674 9.93787 30.6674C10.6789 30.6324 10.7229 30.6154 10.6719 29.8944C10.6372 29.6134 10.6768 29.3282 10.7869 29.0672C10.8969 28.8063 11.0735 28.5788 11.299 28.4074C11.4023 28.2906 11.4744 28.1496 11.5089 27.9974C11.5619 27.8484 11.5819 27.6884 11.6219 27.5344C11.7194 27.0479 11.9695 26.6051 12.3359 26.2704C12.3784 26.2277 12.4098 26.1751 12.4272 26.1174C12.4447 26.0597 12.4476 25.9986 12.4359 25.9394C12.3939 25.8604 12.2209 25.8224 12.1039 25.8184C11.7705 25.8071 11.4367 25.8131 11.1039 25.8364C10.739 25.8593 10.3783 25.7488 10.0889 25.5254C9.97613 25.4357 9.84755 25.3679 9.70984 25.3254C9.35842 25.231 9.04047 25.0402 8.79187 24.7744C8.60658 24.6174 8.40746 24.4775 8.1969 24.3564C8.07045 24.2871 7.94758 24.2113 7.82886 24.1294C7.46752 23.8081 6.99484 23.6409 6.51184 23.6634C6.21184 23.6794 5.9029 23.6684 5.5979 23.6714C5.01797 23.6746 4.4489 23.8291 3.9469 24.1194C3.50558 24.334 3.05102 24.52 2.58594 24.6764C2.29094 24.7954 2.00183 24.9274 1.70483 25.0414C1.44983 25.1414 1.18691 25.2124 0.930908 25.3064C0.783908 25.3604 0.644854 25.4364 0.500854 25.4984C0.356854 25.5604 0.224841 25.6094 0.0118408 25.6984C0.0118408 25.2574 0.00184082 24.8984 0.0118408 24.5434C0.0198408 24.3254 0.222883 24.2824 0.379883 24.2254C0.814883 24.0684 1.26692 23.9534 1.69092 23.7734C2.37769 23.6017 3.03003 23.3139 3.61987 22.9224C4.13255 22.7734 4.65389 22.6558 5.18091 22.5704C5.75981 22.5322 6.34042 22.5269 6.91992 22.5544C7.4368 22.6131 7.93695 22.7731 8.39185 23.0254C8.59185 23.1074 8.77786 23.2204 8.97986 23.2914C9.09301 23.3169 9.19848 23.3691 9.28723 23.4438C9.37598 23.5184 9.44543 23.6133 9.48987 23.7204C9.53827 23.842 9.61531 23.9501 9.71436 24.0355C9.8134 24.121 9.93152 24.1813 10.0588 24.2114C10.2608 24.2823 10.453 24.3784 10.6309 24.4974C10.7401 24.5799 10.8656 24.6381 10.999 24.6683C11.1325 24.6984 11.2709 24.6999 11.4049 24.6724C11.6922 24.6374 11.9819 24.6274 12.2709 24.6424C12.7529 24.6284 12.8919 24.4604 12.8129 23.9834C12.7972 23.8832 12.7696 23.7852 12.7308 23.6914C12.571 23.1774 12.5297 22.6338 12.6099 22.1014C12.626 21.9728 12.6828 21.8526 12.7719 21.7584C13.0109 21.4884 13.2619 21.2274 13.5229 20.9774C13.7558 20.761 13.9353 20.4937 14.0479 20.1964C14.2397 19.6295 14.6244 19.1478 15.1349 18.8354C15.6939 18.5044 16.2249 18.1224 16.7509 17.7354C16.8996 17.6 17.0279 17.4437 17.1318 17.2714C17.3082 16.9894 17.5091 16.7234 17.7319 16.4764C17.9419 16.3028 18.1873 16.1772 18.4509 16.1084C18.6079 16.0789 18.7539 16.0076 18.8738 15.902C18.9936 15.7964 19.0828 15.6605 19.1318 15.5084C19.1948 15.3001 19.3033 15.1083 19.4495 14.9469C19.5956 14.7856 19.7758 14.6587 19.9769 14.5754C20.4619 14.3544 20.9068 14.0484 21.3768 13.7894C21.5148 13.7134 21.6768 13.6894 21.8188 13.6114C22.0536 13.5064 22.2727 13.3695 22.4698 13.2044C22.6772 12.9699 22.9348 12.7852 23.2234 12.664C23.512 12.5429 23.8242 12.4883 24.1368 12.5044C24.3262 12.5084 24.5144 12.4721 24.6888 12.3982C24.8633 12.3243 25.02 12.2143 25.1489 12.0754C25.3187 11.896 25.5284 11.7591 25.7611 11.6761C25.9938 11.593 26.2429 11.5661 26.4879 11.5974C26.7104 11.6404 26.9408 11.6107 27.1451 11.5128C27.3495 11.4148 27.517 11.2538 27.6229 11.0534C27.9172 10.6749 28.2852 10.3602 28.7048 10.1284C28.837 10.0382 28.9919 9.98698 29.1519 9.98045C29.5713 9.96433 29.9914 9.97267 30.4099 10.0054C30.8279 10.0414 31.2409 10.1275 31.6569 10.1915C32.0289 10.2669 32.4156 10.1952 32.7358 9.99144C33.3293 9.61872 34.0257 9.44367 34.7249 9.49144C35.1041 9.50937 35.4799 9.41211 35.8029 9.21245C36.3921 8.90087 37.0309 8.69381 37.6909 8.60045C37.9603 8.55416 38.2241 8.47974 38.4779 8.37843C38.8302 8.2045 39.2191 8.11775 39.6119 8.12544C40.2682 8.14822 40.9168 7.97859 41.4779 7.63744C41.6549 7.53744 41.8199 7.41444 42.0039 7.33244C42.194 7.24036 42.3959 7.17507 42.6039 7.13844C43.2769 7.04644 43.9539 6.97944 44.6289 6.90044C44.701 6.89301 44.7716 6.8755 44.8389 6.84843C45.544 6.56666 46.3252 6.5384 47.049 6.76845C47.1607 6.80015 47.2751 6.82089 47.3909 6.83043C47.7249 6.86499 48.0447 6.98415 48.3199 7.17662C48.5952 7.36909 48.8168 7.62852 48.9639 7.93044C49.0182 8.04056 49.1046 8.13168 49.2117 8.19182C49.3187 8.25196 49.4415 8.27832 49.5638 8.26744C50.2002 8.29725 50.838 8.25227 51.4639 8.13344C51.686 8.06161 51.9203 8.03477 52.153 8.05452C52.3856 8.07427 52.612 8.14019 52.8188 8.24843C52.8977 8.28545 52.9811 8.31202 53.0669 8.32744C53.4186 8.39446 53.7384 8.57561 53.9767 8.84282C54.215 9.11003 54.3584 9.44839 54.3849 9.80544C54.4618 10.3386 54.6835 10.8405 55.0259 11.2564C55.5747 11.9397 55.8901 12.7808 55.9259 13.6564C55.9628 13.9913 56.1081 14.3049 56.3398 14.5494C56.744 15.088 56.9324 15.7582 56.8679 16.4284C56.8286 16.9942 56.909 17.5619 57.1039 18.0944C57.1239 18.1629 57.1489 18.2297 57.1788 18.2944C57.4855 18.8171 57.7424 19.3676 57.9459 19.9384C58.0803 20.1933 58.2846 20.4046 58.5349 20.5474C58.78 20.7012 58.9854 20.9105 59.1346 21.1584C59.2839 21.4063 59.3727 21.6859 59.3939 21.9744C59.4448 22.2289 59.5532 22.4684 59.7109 22.6744C59.8417 22.8815 59.9198 23.1173 59.9388 23.3614C60.0111 24.0863 60.3135 24.7689 60.8019 25.3094C61.2869 25.8484 61.7719 26.3864 62.2709 26.9094C62.5799 27.2344 62.9158 27.5334 63.2358 27.8474C63.3549 27.9513 63.461 28.0692 63.5519 28.1984C63.6134 28.3044 63.7007 28.3932 63.8055 28.4566C63.9104 28.52 64.0294 28.5561 64.1519 28.5614C64.2867 28.5521 64.422 28.5747 64.5465 28.6274C64.671 28.6801 64.7813 28.7615 64.8684 28.8649C64.9555 28.9683 65.017 29.0908 65.0479 29.2224C65.0787 29.354 65.078 29.4911 65.0459 29.6224C65.0199 29.9604 65.0679 30.0484 65.3829 30.1964C65.6979 30.3444 66.0219 30.4724 66.3329 30.6284C66.6194 30.7382 66.8626 30.9381 67.0258 31.198C67.189 31.4578 67.2634 31.7636 67.2379 32.0694C67.2577 32.6533 67.4744 33.2134 67.8529 33.6584C67.9229 33.7398 67.9757 33.8344 68.0083 33.9366C68.0409 34.0388 68.0527 34.1466 68.0428 34.2534C68.0068 34.4974 68.1308 34.6264 68.3608 34.6934C68.7052 34.8083 69.0148 35.0085 69.2609 35.2754C69.6368 35.6363 70.0335 35.9749 70.4489 36.2894C70.5945 36.4079 70.7761 36.4735 70.9639 36.4754C71.5204 36.4434 72.067 36.6333 72.4839 37.0034C72.7026 37.1761 72.9779 37.261 73.2559 37.2414C73.5743 37.2107 73.8722 37.0702 74.0984 36.8439C74.3246 36.6177 74.4651 36.3199 74.4958 36.0014C74.4665 35.6523 74.5611 35.3039 74.7629 35.0174C74.8128 34.9453 74.8354 34.8577 74.8269 34.7704C74.8232 34.6109 74.8611 34.4532 74.937 34.3129C75.013 34.1726 75.1243 34.0545 75.2599 33.9704C75.5289 33.7504 75.7838 33.5134 76.0428 33.2814C76.1435 33.1872 76.2224 33.0722 76.2742 32.9444C76.326 32.8166 76.3495 32.6792 76.3429 32.5414C76.3549 32.0644 76.3939 31.5884 76.4429 31.1134C76.4784 30.7821 76.6118 30.4688 76.8259 30.2134C77.2359 29.6914 77.5518 29.0934 77.9808 28.5894C78.1487 28.3813 78.2711 28.1402 78.34 27.8819C78.4089 27.6235 78.4228 27.3535 78.3809 27.0894C78.3615 26.8942 78.382 26.697 78.4409 26.5098C78.4999 26.3226 78.5961 26.1494 78.7239 26.0004C78.8316 25.8299 78.9182 25.6469 78.9819 25.4554C79.0804 25.2181 79.1977 24.989 79.3329 24.7704C79.592 24.4608 79.8191 24.1257 80.0109 23.7704C80.086 23.6041 80.1985 23.4572 80.3395 23.3412C80.4804 23.2252 80.6461 23.1432 80.8239 23.1014C81.0011 23.0453 81.1561 22.9347 81.2668 22.7854C81.376 22.6135 81.5295 22.4742 81.7111 22.382C81.8926 22.2898 82.0957 22.2482 82.299 22.2614C82.6749 22.2784 83.0538 22.2614 83.4288 22.2824C83.6436 22.3075 83.8556 22.3527 84.0619 22.4174C84.6713 22.6546 85.3305 22.7344 85.9789 22.6494C86.2072 22.6162 86.4402 22.6431 86.6549 22.7274C86.8446 22.8182 87.0593 22.8423 87.2644 22.7958C87.4695 22.7494 87.6529 22.6351 87.7849 22.4714C87.9308 22.2995 88.1122 22.1612 88.3165 22.0659C88.5209 21.9706 88.7434 21.9207 88.9689 21.9194C89.5083 21.9444 90.0393 21.7787 90.4689 21.4514C90.736 21.2487 91.0514 21.1191 91.3839 21.0754C91.8704 20.9825 92.3298 20.7811 92.7279 20.4864C92.9191 20.3033 93.1729 20.2 93.4376 20.1974C93.7023 20.1948 93.9581 20.2931 94.1528 20.4724C94.3174 20.5909 94.4922 20.6946 94.6749 20.7824C94.8559 20.8654 94.9748 20.7874 95.0328 20.5934C95.0415 20.5656 95.0457 20.5366 95.0449 20.5074C95.0631 20.0286 95.2388 19.5691 95.5449 19.2004C95.8583 18.6638 96.1385 18.1084 96.3839 17.5374C96.4362 17.3941 96.5273 17.2681 96.647 17.1734C96.7667 17.0788 96.9103 17.0192 97.0619 17.0014C97.3225 16.967 97.5652 16.8495 97.7539 16.6664C98.0779 16.3774 98.4089 16.0944 98.7139 15.7864C98.8726 15.6063 99.0708 15.4653 99.293 15.3744C99.5152 15.2835 99.7554 15.2452 99.9949 15.2624C100.125 15.2734 100.257 15.2534 100.386 15.2624C100.603 15.2857 100.822 15.2638 101.03 15.1981C101.238 15.1323 101.43 15.0242 101.594 14.8804C101.734 14.7801 101.895 14.7137 102.065 14.6864C102.724 14.5616 103.403 14.6029 104.042 14.8064C104.554 14.9604 104.777 14.8314 104.823 14.2824C104.909 13.6077 105.102 12.9509 105.394 12.3364C105.588 11.8714 105.855 11.4364 106.079 10.9834C106.194 10.7514 106.261 10.4924 106.394 10.2724C106.737 9.70245 107.094 9.14109 107.465 8.58842C107.876 7.97642 108.308 7.37944 108.732 6.77644C108.949 6.44949 109.229 6.16901 109.555 5.95143C110.012 5.66527 110.401 5.28309 110.695 4.83144C110.829 4.62325 111.004 4.44544 111.211 4.30952C111.418 4.17361 111.651 4.08262 111.895 4.04243C112.362 3.94639 112.815 3.78833 113.241 3.57243C113.468 3.47919 113.709 3.42542 113.954 3.41344C114.183 3.38844 114.418 3.41344 114.654 3.41344C114.836 3.42903 115.019 3.37987 115.169 3.27455C115.319 3.16923 115.427 3.01448 115.474 2.83745C115.561 2.63888 115.638 2.43594 115.705 2.22945C115.746 2.05752 115.843 1.90403 115.98 1.79295C116.118 1.68187 116.288 1.61944 116.465 1.61543C116.953 1.54346 117.42 1.36972 117.836 1.10545C117.944 1.03353 118.071 0.994214 118.2 0.992264C118.33 0.990313 118.458 1.02579 118.568 1.09444C118.615 1.12761 118.667 1.1542 118.722 1.17345C119.208 1.30245 119.69 1.46143 120.185 1.54243C120.498 1.59509 120.789 1.73753 121.023 1.95244C121.228 2.12844 121.472 2.25943 121.693 2.41743C121.94 2.59343 122.182 2.77744 122.426 2.95744C123.154 3.43427 123.796 4.03066 124.326 4.72145C124.407 4.83405 124.512 4.92796 124.633 4.99693C124.754 5.06591 124.887 5.10835 125.026 5.12144C125.184 5.14401 125.335 5.20311 125.467 5.29405C125.598 5.385 125.707 5.50528 125.784 5.64543C125.907 5.8226 126.081 5.95744 126.284 6.03145C127.165 6.36536 127.987 6.83799 128.719 7.43144C129.048 7.75505 129.349 8.10633 129.619 8.48143C129.727 8.63583 129.872 8.7609 130.041 8.84538C130.209 8.92987 130.396 8.97113 130.585 8.96544C130.74 8.96544 130.895 8.98843 131.085 9.00343V10.0424C130.725 10.1523 130.34 10.1523 129.98 10.0424C129.44 9.90116 128.972 9.56664 128.663 9.10243C128.575 8.96976 128.479 8.84223 128.376 8.72044C128.09 8.33503 127.718 8.02227 127.289 7.80745C127.05 7.70745 126.84 7.54043 126.603 7.43443C126.334 7.29588 126.048 7.19268 125.753 7.12743C125.601 7.11361 125.456 7.06258 125.329 6.97884C125.202 6.89509 125.097 6.78125 125.025 6.64745C124.964 6.50777 124.864 6.38847 124.737 6.3036C124.611 6.21874 124.462 6.17185 124.31 6.16844C124.17 6.16295 124.035 6.1216 123.916 6.04839C123.797 5.97517 123.699 5.87257 123.631 5.75044C123.163 5.01445 122.536 4.39258 121.796 3.93044C121.482 3.70044 121.148 3.49845 120.822 3.28545C120.743 3.24841 120.668 3.20315 120.599 3.15044C120 2.69186 119.287 2.40524 118.538 2.32143C118.356 2.27303 118.164 2.27686 117.985 2.33244C117.614 2.45244 117.258 2.61842 116.898 2.76942C116.81 2.80332 116.731 2.85801 116.668 2.92885C116.605 2.99969 116.56 3.08461 116.537 3.17644C116.492 3.31359 116.438 3.44728 116.374 3.57643C116.267 3.84804 116.075 4.07801 115.828 4.23235C115.58 4.38668 115.289 4.45718 114.998 4.43343C114.331 4.45903 113.676 4.61392 113.068 4.88945C112.882 4.9689 112.687 5.02369 112.487 5.05244C112.299 5.07365 112.117 5.13422 111.954 5.23018C111.791 5.32614 111.65 5.45537 111.54 5.60945C111.152 6.11766 110.691 6.56495 110.171 6.93645C109.86 7.15285 109.612 7.44743 109.451 7.79045C109.37 7.94425 109.275 8.09077 109.169 8.22844C108.595 9.06344 107.995 9.88143 107.456 10.7384C107.216 11.1836 107.005 11.6432 106.822 12.1144C106.737 12.2964 106.622 12.4644 106.522 12.6424C106.374 12.9528 106.249 13.2729 106.145 13.6004C105.869 14.3424 105.938 15.2004 105.409 15.8514C105.26 16.32 105.029 16.7579 104.725 17.1444C104.615 17.3467 104.536 17.5645 104.492 17.7904C104.438 18.1064 104.294 18.4002 104.078 18.6364C103.736 18.9727 103.467 19.3748 103.285 19.8184C103.197 19.9849 103.101 20.1465 102.996 20.3024C102.843 20.5964 102.696 20.8954 102.559 21.1954C102.523 21.2734 102.535 21.3804 102.486 21.4444C102.148 21.8864 101.925 22.4254 101.408 22.7184C101.293 22.7796 101.191 22.8629 101.108 22.9634C100.802 23.3692 100.423 23.7144 99.9908 23.9814C99.5855 24.2893 99.2621 24.6921 99.049 25.1544C98.8471 25.4873 98.5845 25.7794 98.2749 26.0154C97.8162 26.3683 97.3781 26.7472 96.9629 27.1504C96.5108 27.5605 95.9732 27.8649 95.3889 28.0414C94.6403 28.2648 93.9133 28.5553 93.2169 28.9094C93.1378 28.9458 93.0545 28.9723 92.9689 28.9884C92.5348 29.099 92.1193 29.2729 91.7358 29.5044C91.2249 29.8065 90.7337 30.1405 90.2649 30.5044C89.9617 30.7009 89.643 30.8721 89.3119 31.0164C88.8469 31.2814 88.3949 31.5694 87.9279 31.8314C87.7673 31.9293 87.5882 31.993 87.4019 32.0184C86.8022 32.1312 86.2389 32.3875 85.7599 32.7654C85.3289 33.0314 84.9209 33.3334 84.4929 33.6034C84.358 33.6878 84.2078 33.7449 84.0509 33.7714C83.3192 33.8977 82.6395 34.2328 82.0939 34.7364C82.0444 34.7893 81.9854 34.8324 81.9199 34.8634C81.2335 35.2002 80.5682 35.5786 79.9279 35.9964C79.7705 36.0691 79.6352 36.1823 79.5359 36.3244C79.2475 36.7233 79.0465 37.1786 78.9459 37.6604C78.9285 37.8487 78.8673 38.0302 78.7673 38.1906C78.6673 38.3511 78.5312 38.4859 78.3699 38.5844C78.2464 38.6477 78.1373 38.7356 78.0492 38.8428C77.9611 38.95 77.896 39.0741 77.8579 39.2074C77.8428 39.3023 77.794 39.3885 77.7206 39.4504C77.6471 39.5123 77.5539 39.5456 77.4579 39.5444C77.0952 39.5736 76.744 39.6851 76.4309 39.8704C76.0877 40.0259 75.7147 40.1048 75.3379 40.1014C74.9708 40.1502 74.5975 40.1174 74.2445 40.0054C73.8915 39.8934 73.5677 39.705 73.2959 39.4534C73.2298 39.3969 73.1543 39.3522 73.0729 39.3214C72.3623 38.9917 71.7133 38.5429 71.1539 37.9944C70.9361 37.8357 70.7012 37.7015 70.4539 37.5944C70.2061 37.4841 69.968 37.3534 69.7419 37.2034C69.2419 36.8034 68.7788 36.3724 68.2878 35.9684C68.14 35.8522 67.9723 35.7638 67.7928 35.7074C67.5488 35.661 67.3284 35.5317 67.1686 35.3415C67.0088 35.1513 66.9196 34.9118 66.9159 34.6634C66.8954 34.5072 66.8519 34.3549 66.7869 34.2114C66.6299 33.8534 66.4279 33.5114 66.3009 33.1434C66.2059 32.8407 66.1495 32.5273 66.1329 32.2104C66.1423 32.1023 66.1185 31.9938 66.0649 31.8994C66.0114 31.8049 65.9305 31.729 65.8329 31.6814C65.3961 31.4263 64.9132 31.2601 64.4119 31.1924C63.7479 31.1764 63.4989 30.7924 63.6459 30.1404C63.7169 29.8264 63.6948 29.7484 63.4028 29.6404C63.1229 29.5229 62.8879 29.319 62.7319 29.0584C62.5143 28.7886 62.2756 28.5364 62.0179 28.3044C61.7969 28.0764 61.5709 27.8524 61.3549 27.6184C60.9549 27.1824 60.5739 26.7184 60.1489 26.3064C59.7194 25.896 59.3934 25.3895 59.1979 24.8284C59.0069 24.4216 58.8779 23.9885 58.8149 23.5434C58.7718 23.3468 58.6792 23.1643 58.5459 23.0134C58.3943 22.8548 58.3078 22.6449 58.3038 22.4254C58.3165 22.2293 58.275 22.0335 58.1838 21.8594C58.0926 21.6853 57.9553 21.5397 57.7869 21.4384C57.562 21.2819 57.3601 21.0947 57.1869 20.8824C56.9818 20.5853 56.819 20.2613 56.7029 19.9194C56.6147 19.6774 56.5064 19.4433 56.3789 19.2194C55.9873 18.5218 55.7698 17.74 55.7449 16.9404C55.7449 16.7664 55.7379 16.5914 55.7509 16.4184C55.7797 16.0404 55.6735 15.6644 55.4509 15.3574C55.052 14.8197 54.8178 14.1777 54.7769 13.5094C54.7495 12.9819 54.546 12.4787 54.1989 12.0804C53.7264 11.5255 53.4179 10.8499 53.3079 10.1294C53.2897 9.97005 53.226 9.81925 53.1244 9.69511C53.0228 9.57097 52.8875 9.47873 52.7349 9.42943C52.341 9.28324 51.9187 9.22988 51.5009 9.27345C50.6649 9.33745 49.8239 9.33444 48.9849 9.33144C48.7793 9.32278 48.5803 9.25663 48.4104 9.14049C48.2405 9.02435 48.1066 8.86286 48.0239 8.67442C47.9032 8.45255 47.7294 8.26403 47.5181 8.12566C47.3068 7.98728 47.0645 7.90337 46.8129 7.88142C46.143 7.76001 45.4533 7.80991 44.8079 8.02644C44.2609 8.16929 43.6983 8.24354 43.1329 8.24745C42.7981 8.2586 42.4726 8.36017 42.1909 8.54143C41.6588 8.86751 41.0767 9.10401 40.4679 9.24144C40.1833 9.29603 39.8929 9.31317 39.6039 9.29243C39.3295 9.29605 39.059 9.35737 38.8099 9.47243C38.5035 9.60101 38.1824 9.69137 37.8539 9.74144C37.2517 9.83349 36.6691 10.0251 36.1299 10.3084C35.6858 10.5603 35.1787 10.6791 34.6689 10.6504C34.128 10.6146 33.5908 10.763 33.1449 11.0714C32.8824 11.2559 32.5652 11.3462 32.2449 11.3274C31.6239 11.2884 31.0039 11.2274 30.3839 11.1744C30.2399 11.1614 30.0959 11.1474 29.9529 11.1254C29.6781 11.0933 29.3997 11.1357 29.1469 11.2481C28.894 11.3605 28.6761 11.5389 28.5159 11.7644C28.2949 12.0114 28.0519 12.2394 27.8159 12.4744C27.721 12.5647 27.608 12.6338 27.4844 12.6772C27.3608 12.7206 27.2294 12.7374 27.0989 12.7264C26.9689 12.7264 26.8369 12.7364 26.7079 12.7264C26.5569 12.7099 26.4042 12.7254 26.2596 12.772C26.1151 12.8185 25.9819 12.895 25.8689 12.9964C25.6501 13.187 25.4066 13.3471 25.1449 13.4724C24.9106 13.5832 24.655 13.6415 24.3959 13.6434C24.1501 13.625 23.9035 13.6663 23.6771 13.7638C23.4508 13.8613 23.2514 14.0122 23.0959 14.2034C22.8559 14.4537 22.5472 14.6276 22.2089 14.7034C21.7985 14.8771 21.4 15.0775 21.0159 15.3034C20.4756 15.5857 20.0512 16.0481 19.8159 16.6104C19.7497 16.7735 19.6381 16.9142 19.4944 17.0157C19.3506 17.1173 19.1807 17.1755 19.0049 17.1834C18.8153 17.1917 18.6326 17.257 18.4807 17.3708C18.3289 17.4847 18.215 17.6417 18.1539 17.8214C17.8534 18.3373 17.4384 18.7773 16.9409 19.1074C16.5854 19.3554 16.2101 19.5738 15.8188 19.7604C15.4708 19.9506 15.21 20.2681 15.0909 20.6464C14.9177 21.1256 14.6214 21.5509 14.2319 21.8794C14.1319 21.9684 14.0389 22.0544 13.9409 22.1404C13.7919 22.2607 13.6893 22.4289 13.6506 22.6164C13.612 22.804 13.6396 22.9991 13.7289 23.1684C13.8669 23.4881 13.9265 23.8361 13.9028 24.1834C13.9003 24.3283 13.9151 24.473 13.9469 24.6144C14.0168 24.9044 14.0242 25.2058 13.9689 25.4989C13.9135 25.792 13.7966 26.0699 13.6259 26.3144C13.4699 26.5587 13.2983 26.7925 13.1119 27.0144C12.7411 27.41 12.5387 27.9343 12.5479 28.4764C12.5576 28.5921 12.5356 28.7082 12.4841 28.8122C12.4327 28.9162 12.3537 29.0041 12.2559 29.0664C12.1829 29.1134 12.1229 29.1784 12.0559 29.2304C11.9415 29.3083 11.8506 29.416 11.7931 29.5419C11.7356 29.6678 11.7137 29.807 11.7299 29.9444C11.7509 30.2184 11.7479 30.4954 11.7429 30.7704C11.7594 30.9985 11.6863 31.224 11.5392 31.3989C11.392 31.5739 11.1823 31.6846 10.9548 31.7074C10.697 31.7451 10.4362 31.7585 10.1759 31.7474C10.0234 31.7308 9.86952 31.7648 9.73816 31.8441C9.6068 31.9234 9.50516 32.0437 9.44885 32.1864C9.28785 32.5414 9.09286 32.8864 8.92786 33.2364C8.88237 33.3511 8.81383 33.4552 8.72644 33.5422C8.63905 33.6292 8.53475 33.6974 8.41992 33.7424C8.06555 33.8767 7.75984 34.1148 7.54285 34.4254C7.32585 34.7154 7.1129 35.0094 6.8739 35.2804C6.73213 35.4457 6.563 35.5854 6.3739 35.6934C6.0199 35.8934 5.63991 36.0374 5.27991 36.2224C5.08341 36.3101 4.90239 36.4289 4.7439 36.5744C4.31142 37.0021 3.83856 37.3869 3.33191 37.7234C3.01125 37.945 2.72397 38.2114 2.47888 38.5144C2.17765 38.9259 1.74235 39.2195 1.24792 39.3444C0.933716 39.4512 0.628347 39.5826 0.334839 39.7374C0.248839 39.7744 0.155945 39.7944 0.0439453 39.8284" fill="#017C38"/>
<path d="M32.9464 42.6215C32.962 42.333 32.9593 42.0437 32.9384 41.7555C32.9108 41.3657 32.8314 40.9814 32.7024 40.6125C32.5636 40.2837 32.3475 39.9933 32.0724 39.766C31.7973 39.5386 31.4714 39.381 31.1224 39.3065C30.3987 39.1535 29.6619 39.0712 28.9224 39.0605C27.9613 39.0179 27.0071 39.2418 26.1654 39.7075C25.2199 40.183 24.321 40.7457 23.4804 41.3885C20.6999 43.4621 18.2012 45.8888 16.0474 48.6075C15.087 49.7513 14.3258 51.0484 13.7954 52.4445C13.5631 53.0613 13.5563 53.7403 13.7764 54.3615C14.0705 55.0924 14.5704 55.7222 15.2154 56.1745C15.8415 56.6451 16.5306 57.0254 17.2624 57.3045C17.8242 57.5368 18.4046 57.7215 18.9974 57.8565C20.6391 58.1857 22.3355 58.1192 23.9464 57.6625C25.266 57.3092 26.4939 56.6755 27.5464 55.8045C29.4533 54.1584 30.8849 52.0318 31.6924 49.6455C31.94 48.9815 32.1442 48.3021 32.3034 47.6115C32.4954 46.7815 32.6534 45.9395 32.7624 45.0945C32.8624 44.3055 32.8824 43.5055 32.9434 42.6205L32.9464 42.6215ZM21.1154 61.2435C19.3895 61.2898 17.6631 61.1722 15.9594 60.8925C14.7039 60.7268 13.5063 60.2632 12.4664 59.5405C11.5801 58.8994 10.9235 57.9904 10.5934 56.9475C10.4075 56.293 10.3126 55.616 10.3114 54.9355C10.2722 53.7602 10.4053 52.5854 10.7064 51.4485C11.0884 50.0215 11.6888 48.6621 12.4864 47.4185C13.737 45.4955 15.2799 43.7792 17.0594 42.3315C18.3024 41.2895 19.5764 40.2825 20.8364 39.2605C22.3574 38.0275 23.7934 36.6985 25.2364 35.3785C25.8084 34.8234 26.4561 34.352 27.1604 33.9785C28.2846 33.41 29.581 33.2826 30.7944 33.6215C32.2861 34.0517 33.5675 35.0156 34.3944 36.3295C34.9898 37.2023 35.4852 38.1391 35.8714 39.1225C36.3806 40.3848 36.7616 41.695 37.0084 43.0335C37.3246 44.6579 37.392 46.3209 37.2084 47.9655C37.0948 48.8285 36.8671 49.6725 36.5314 50.4755C35.3228 53.2477 33.4962 55.7067 31.1914 57.6645C30.2385 58.5354 29.187 59.2919 28.0584 59.9185C26.9131 60.5465 25.6677 60.9711 24.3774 61.1735C23.9171 61.2313 23.4532 61.256 22.9894 61.2475C22.3664 61.2585 21.7424 61.2475 21.1184 61.2475" fill="#017C38"/>
<path d="M64.1667 58.5204C64.8481 58.5206 65.5255 58.4154 66.1747 58.2084C67.4852 57.8028 68.638 57.0014 69.4747 55.9144C70.1837 54.9814 70.8427 54.0094 71.5237 53.0544C72.0255 52.2745 72.589 51.5362 73.2087 50.8464C73.63 50.3828 74.1604 50.0319 74.7517 49.8254C74.9366 49.7859 75.104 49.688 75.2289 49.5461C75.3539 49.4042 75.4299 49.2258 75.4457 49.0374C75.4637 48.9084 75.5057 48.7834 75.5297 48.6554C75.5775 48.5206 75.5927 48.3764 75.5742 48.2345C75.5558 48.0927 75.5041 47.9572 75.4234 47.8392C75.3427 47.7211 75.2353 47.6237 75.1099 47.5549C74.9845 47.4861 74.8447 47.4479 74.7017 47.4434C73.5947 47.2695 72.4645 47.3119 71.3737 47.5684C70.2052 47.8094 69.1074 48.315 68.1647 49.0464C66.2684 50.4873 64.5669 52.168 63.1027 54.0464C62.5406 54.7482 62.101 55.5401 61.8027 56.3884C61.6856 56.7409 61.7024 57.1242 61.85 57.4651C61.9976 57.806 62.2655 58.0805 62.6027 58.2364C63.0902 58.4643 63.6279 58.5638 64.1647 58.5254L64.1667 58.5204ZM58.9547 57.7574C58.9723 56.3443 59.2914 54.9512 59.8907 53.6714C60.7088 52.0479 61.8687 50.6209 63.2907 49.4884C64.7847 48.2934 66.4034 47.2634 68.1187 46.4164C69.2687 45.8036 70.4588 45.2691 71.6807 44.8164C72.329 44.5597 73.0124 44.4029 73.7077 44.3514C74.0491 44.3349 74.3903 44.3866 74.7115 44.5033C75.0328 44.6201 75.3276 44.7996 75.5787 45.0314C76.2316 45.5931 76.7109 46.3291 76.9607 47.1534C77.1404 47.8904 77.1336 48.6606 76.9407 49.3944C76.751 50.3161 76.4813 51.2195 76.1347 52.0944C75.8567 52.7944 75.5127 53.4634 75.2057 54.1504C74.7997 55.0614 74.4007 55.9754 74.0057 56.8894C73.9749 56.9552 73.9559 57.0259 73.9497 57.0984C73.8691 57.7622 73.9487 58.4356 74.1817 59.0624C74.2679 59.281 74.4373 59.4565 74.6527 59.5504C75.0527 59.7164 75.4594 59.8677 75.8727 60.0044C76.1047 60.0814 76.2467 59.9674 76.2117 59.7104C76.1774 59.0697 76.3262 58.4326 76.6407 57.8734C77.1247 56.7734 77.6757 55.7094 78.2337 54.6474C78.6037 53.9474 79.0337 53.2714 79.4397 52.5874C79.9577 51.7174 80.4797 50.8494 80.9997 49.9804C81.7267 48.7624 82.4657 47.5524 83.1757 46.3244C83.9427 44.9964 84.7247 43.6734 85.4187 42.3074C85.9547 41.2534 86.3827 40.1424 86.8187 39.0414C86.9987 38.5884 87.0577 38.0874 87.2097 37.6204C87.3739 36.8132 87.6428 36.0309 88.0097 35.2934C88.2896 34.8512 88.6588 34.4725 89.0937 34.1814C89.2529 34.0762 89.4399 34.0212 89.6307 34.0235C89.8215 34.0258 90.0071 34.0854 90.1637 34.1944C90.7005 34.5221 91.1085 35.024 91.3197 35.6164C91.3247 35.6294 91.3247 35.6454 91.3317 35.6584C91.4452 35.9252 91.4896 36.2163 91.461 36.5049C91.4323 36.7934 91.3314 37.0701 91.1677 37.3094C90.5337 38.4964 89.9407 39.7044 89.3127 40.8934C88.7127 42.0314 88.0837 43.1544 87.4777 44.2934C86.8717 45.4324 86.2837 46.5744 85.6777 47.7114C85.2647 48.4904 84.8347 49.2614 84.4197 50.0394C84.0047 50.8174 83.6087 51.5744 83.2087 52.3394C82.7687 53.1864 82.3247 54.0314 81.9007 54.8864C81.5857 55.5204 81.2617 56.1544 81.0117 56.8154C80.7617 57.4764 80.5857 58.1964 80.3797 58.8904C80.2185 59.4959 79.8916 60.0444 79.4357 60.4744C79.1487 60.768 78.7573 60.9363 78.3467 60.9424C77.9177 60.9424 77.8657 60.9914 77.8467 61.4104C77.8442 61.5257 77.8094 61.6379 77.7463 61.7344C77.6832 61.8309 77.5943 61.9078 77.4897 61.9564C77.2636 62.0811 77.0528 62.2318 76.8617 62.4054C76.5276 62.7451 76.0886 62.962 75.6159 63.0212C75.1431 63.0804 74.6642 62.9782 74.2567 62.7314C73.3782 62.2413 72.631 61.5462 72.0787 60.7054C71.6297 60.0854 71.2367 59.4254 70.8337 58.7744C70.5997 58.3974 70.4597 58.3614 70.0587 58.5464C68.7587 59.1464 67.4587 59.7674 66.1357 60.3034C65.0462 60.7442 63.8993 61.0271 62.7297 61.1434C61.8878 61.2455 61.0357 61.0699 60.3027 60.6434C59.9872 60.4615 59.7171 60.2104 59.5127 59.909C59.3083 59.6076 59.175 59.2638 59.1227 58.9034C59.0487 58.4484 58.9847 57.9914 58.9497 57.7564" fill="#017C38"/>
<path d="M105.58 61.9534C103.733 61.9262 101.967 61.1868 100.652 59.8894C99.8847 59.2 99.2514 58.3748 98.7838 57.4554C98.6241 57.1467 98.5052 56.8187 98.4298 56.4794C98.2487 55.7458 98.2043 54.9851 98.2988 54.2354C98.3898 53.6844 98.7478 53.4824 99.2118 53.7824C99.5158 53.9786 99.8019 54.2011 100.067 54.4474C100.864 55.269 101.59 56.1565 102.238 57.1004C102.626 57.6053 103.043 58.0877 103.486 58.5454C103.738 58.8274 104.055 59.0433 104.409 59.1744C104.764 59.3055 105.145 59.3478 105.52 59.2974C106.541 59.1809 107.547 58.955 108.52 58.6234C109.812 58.1941 111.067 57.659 112.272 57.0234C112.984 56.6622 113.636 56.1926 114.204 55.6314C114.486 55.3385 114.708 54.9934 114.858 54.6154C114.916 54.4815 114.94 54.3353 114.928 54.1898C114.916 54.0442 114.868 53.904 114.789 53.7814C114.599 53.472 114.338 53.2128 114.027 53.0254C113.364 52.6661 112.652 52.4047 111.914 52.2494C110.571 51.8874 109.224 51.5434 107.882 51.1784C107.128 50.9784 106.377 50.7574 105.633 50.5194C104.882 50.2932 104.181 49.9272 103.566 49.4404C103.475 49.369 103.389 49.2912 103.309 49.2074C103.238 49.1538 103.181 49.0846 103.142 49.0052C103.103 48.9259 103.082 48.8385 103.082 48.7499C103.082 48.6613 103.103 48.574 103.142 48.4946C103.181 48.4153 103.238 48.3461 103.309 48.2924C103.722 47.9078 104.165 47.5576 104.635 47.2454C105.75 46.5426 106.938 45.9606 108.177 45.5094C109.342 45.0724 110.504 44.6224 111.683 44.2284C112.983 43.7924 114.314 43.4214 115.626 43.0084C116.702 42.6694 117.773 42.3084 118.844 41.9584C119.145 41.8433 119.479 41.8504 119.775 41.9784C119.975 42.0609 120.181 42.1278 120.391 42.1784C120.46 42.1844 120.527 42.2052 120.588 42.2396C120.648 42.2739 120.7 42.3209 120.741 42.3773C120.781 42.4338 120.809 42.4983 120.822 42.5665C120.835 42.6347 120.833 42.705 120.817 42.7724C120.76 43.2207 120.58 43.6444 120.297 43.9964C119.906 44.5437 119.364 44.9644 118.737 45.2064C118.227 45.4107 117.706 45.5843 117.176 45.7264C116.325 45.9604 115.462 46.1544 114.608 46.3794C113.642 46.6334 112.671 46.8794 111.718 47.1794C111.141 47.3594 110.592 47.6314 110.031 47.8664C109.841 47.9351 109.658 48.0232 109.486 48.1294C109.436 48.165 109.395 48.2117 109.365 48.2658C109.336 48.3199 109.32 48.38 109.318 48.4414C109.334 48.5264 109.49 48.6164 109.599 48.6464C110.52 48.8984 111.45 49.1204 112.368 49.3844C113.049 49.5844 113.726 49.7984 114.386 50.0534C115.411 50.4212 116.357 50.9789 117.175 51.6974C117.65 52.0983 117.989 52.6373 118.143 53.2396C118.298 53.8418 118.26 54.4773 118.037 55.0574C117.661 56.146 116.978 57.103 116.072 57.8134C114.955 58.737 113.721 59.5103 112.403 60.1134C111.413 60.5924 110.389 61.0001 109.341 61.3334C108.123 61.7269 106.854 61.9362 105.575 61.9544" fill="#017C38"/>
<path d="M37.6894 59.5006C37.7308 58.9752 37.9703 58.4851 38.3594 58.1296C38.836 57.7036 39.3774 57.3562 39.9634 57.1007C41.0024 56.6237 42.0634 56.1817 43.1024 55.7147C43.9344 55.3427 44.7654 54.9676 45.5824 54.5646C46.0142 54.3522 46.3838 54.0319 46.6554 53.6346C46.7255 53.5421 46.7683 53.4318 46.7789 53.3162C46.7895 53.2006 46.7675 53.0844 46.7154 52.9807C46.426 52.2991 46.0271 51.6694 45.5344 51.1166C44.6474 50.1416 43.7344 49.1857 42.8344 48.2277C42.1674 47.5217 41.4894 46.8276 40.8224 46.1206C40.7086 45.9893 40.6031 45.851 40.5064 45.7066C40.4228 45.5952 40.3717 45.4628 40.3587 45.3241C40.3456 45.1854 40.3711 45.0458 40.4324 44.9207C40.6287 44.4318 40.9773 44.0191 41.4264 43.7437C41.663 43.598 41.9361 43.5223 42.214 43.5255C42.4919 43.5287 42.7632 43.6106 42.9964 43.7617C43.6862 44.1953 44.2858 44.7579 44.7624 45.4186C45.8954 46.8676 46.9924 48.3456 48.1274 49.7936C48.5904 50.3856 49.1124 50.9317 49.6094 51.4937C49.723 51.627 49.8736 51.7237 50.0422 51.7716C50.2107 51.8195 50.3896 51.8163 50.5564 51.7626C51.3158 51.5658 52.0308 51.2265 52.6634 50.7626C53.9934 49.8356 55.2984 48.8717 56.6124 47.9217C56.8704 47.7347 57.1194 47.5357 57.3804 47.3527C57.474 47.2786 57.5825 47.2253 57.6984 47.1967C57.8143 47.168 57.935 47.1645 58.0524 47.1863C58.1698 47.2082 58.2812 47.255 58.379 47.3236C58.4768 47.3921 58.5588 47.4808 58.6194 47.5837C58.7997 47.8495 58.8996 48.1617 58.9072 48.4828C58.9149 48.804 58.8299 49.1205 58.6624 49.3947C58.2722 50.1124 57.6815 50.701 56.9624 51.0887C55.8234 51.7507 54.6624 52.3767 53.5244 53.0367C52.9807 53.3226 52.5435 53.776 52.2774 54.3297C52.1899 54.5265 52.1391 54.7376 52.1274 54.9526C52.1214 55.6357 52.2424 56.3139 52.4844 56.9526C52.7404 57.7196 53.0134 58.4817 53.2474 59.2527C53.4734 59.9997 53.6474 60.7616 53.8654 61.5136C53.9696 62.0286 53.9259 62.5625 53.7394 63.0537C53.6184 63.4907 53.2394 63.5537 52.9774 63.1847C52.686 62.7536 52.4189 62.3065 52.1774 61.8456C51.4914 60.5896 50.8414 59.3116 50.1264 58.0726C49.755 57.3616 49.1957 56.766 48.5094 56.3507C48.2927 56.2333 48.0527 56.1654 47.8067 56.1519C47.5606 56.1384 47.3146 56.1797 47.0864 56.2726C46.1208 56.6284 45.2031 57.1027 44.3544 57.6847L40.9454 59.8507C40.6154 60.0607 40.2784 60.2597 39.9564 60.4807C39.8431 60.5598 39.7131 60.6118 39.5764 60.6326C39.4398 60.6534 39.3001 60.6425 39.1684 60.6007C38.8464 60.5147 38.5234 60.4297 38.2074 60.3247C38.045 60.2597 37.9074 60.145 37.8144 59.9969C37.7213 59.8489 37.6775 59.6751 37.6894 59.5006Z" fill="#017C38"/>
<path d="M89.6657 59.5379C89.5127 59.5379 89.3967 59.5449 89.2817 59.5379C89.1978 59.5425 89.1138 59.5297 89.035 59.5004C88.9563 59.4712 88.8844 59.426 88.8238 59.3678C88.7632 59.3095 88.7152 59.2395 88.6829 59.1619C88.6505 59.0843 88.6344 59.001 88.6357 58.9169C88.5997 58.6299 88.5647 58.3419 88.5237 58.0549C88.4219 57.2574 88.594 56.4489 89.0117 55.7619C89.3577 55.1439 89.7327 54.5409 90.0477 53.9069C90.2344 53.4842 90.394 53.05 90.5257 52.6069C90.8196 51.6089 91.1917 50.6355 91.6387 49.6959C92.0149 48.9914 92.5153 48.3607 93.1157 47.8339C93.5247 47.4729 93.7417 47.4859 94.1217 47.8699C94.5207 48.2507 94.8449 48.7029 95.0777 49.2029C95.2232 49.5057 95.2451 49.8533 95.1387 50.1719C94.7847 51.2429 94.4517 52.3209 94.0687 53.3809C93.6687 54.4809 93.2257 55.5639 92.7997 56.6539C92.6157 57.1249 92.4477 57.6029 92.2397 58.0629C92.0786 58.4867 91.7926 58.8514 91.4195 59.1089C91.0464 59.3664 90.604 59.5045 90.1507 59.5049C89.9767 59.5099 89.8037 59.5279 89.6667 59.5379" fill="#017C38"/>
<path d="M96.5158 41.3429C96.2498 41.3289 96.0758 41.3269 95.9038 41.3089C95.6819 41.299 95.4643 41.2449 95.2637 41.1497C95.063 41.0546 94.8834 40.9203 94.7354 40.7547C94.5874 40.5892 94.4739 40.3958 94.4017 40.1858C94.3294 39.9758 94.2999 39.7535 94.3148 39.5319C94.3313 39.113 94.3984 38.6977 94.5148 38.2949C94.7418 37.4739 95.0518 36.6789 95.2258 35.8409C95.2352 35.7446 95.274 35.6535 95.3368 35.5799C95.3996 35.5063 95.4835 35.4538 95.5772 35.4294C95.6708 35.405 95.7697 35.4098 95.8604 35.4434C95.9512 35.4769 96.0295 35.5375 96.0848 35.6169C96.3998 35.9542 96.6734 36.3278 96.8998 36.7299C97.2176 37.3471 97.6277 37.9122 98.1158 38.4059C98.2709 38.5471 98.3954 38.7186 98.4814 38.9099C98.5674 39.1012 98.6132 39.3082 98.6158 39.5179C98.6422 39.927 98.5159 40.3313 98.2614 40.6525C98.0068 40.9738 97.642 41.1892 97.2378 41.2569C96.9972 41.299 96.7545 41.328 96.5108 41.3439" fill="#017C38"/>
</svg>
