<svg id="Layer_1" data-name="Layer 1" xmlns="http://www.w3.org/2000/svg" viewBox="0 0 1908.43 1652.74"><defs><style>.cls-1{fill:none;stroke:#423f3f;stroke-miterlimit:10;}</style></defs><polygon class="cls-1" points="1431.03 0.5 477.39 0.5 0.58 826.37 477.39 1652.24 1431.03 1652.24 1907.85 826.37 1431.03 0.5"/><polygon class="cls-1" points="1419.3 20.82 489.13 20.82 24.05 826.37 489.13 1631.92 1419.3 1631.92 1884.38 826.37 1419.3 20.82"/><polygon class="cls-1" points="1407.56 41.15 500.86 41.15 47.51 826.37 500.86 1611.6 1407.56 1611.6 1860.91 826.37 1407.56 41.15"/><polygon class="cls-1" points="1395.83 61.47 512.6 61.47 70.98 826.37 512.6 1591.27 1395.83 1591.27 1837.44 826.37 1395.83 61.47"/><polygon class="cls-1" points="1384.1 81.79 524.33 81.79 94.45 826.37 524.33 1570.95 1384.1 1570.95 1813.98 826.37 1384.1 81.79"/><polygon class="cls-1" points="1372.36 102.12 536.06 102.12 117.92 826.37 536.06 1550.63 1372.36 1550.63 1790.51 826.37 1372.36 102.12"/><polygon class="cls-1" points="1360.63 122.44 547.8 122.44 141.38 826.37 547.8 1530.3 1360.63 1530.3 1767.04 826.37 1360.63 122.44"/><polygon class="cls-1" points="1348.89 142.76 559.53 142.76 164.85 826.37 559.53 1509.98 1348.89 1509.98 1743.58 826.37 1348.89 142.76"/><polygon class="cls-1" points="1337.16 163.09 571.26 163.09 188.32 826.37 571.26 1489.66 1337.16 1489.66 1720.11 826.37 1337.16 163.09"/><polygon class="cls-1" points="1325.43 183.41 583 183.41 211.78 826.37 583 1469.33 1325.43 1469.33 1696.64 826.37 1325.43 183.41"/><polygon class="cls-1" points="1313.69 203.73 594.73 203.73 235.25 826.37 594.73 1449.01 1313.69 1449.01 1673.17 826.37 1313.69 203.73"/><polygon class="cls-1" points="1301.96 224.06 606.47 224.06 258.72 826.37 606.47 1428.69 1301.96 1428.69 1649.71 826.37 1301.96 224.06"/><polygon class="cls-1" points="1290.23 244.38 618.2 244.38 282.19 826.37 618.2 1408.36 1290.23 1408.36 1626.24 826.37 1290.23 244.38"/><polygon class="cls-1" points="1278.49 264.7 629.93 264.7 305.65 826.37 629.93 1388.04 1278.49 1388.04 1602.77 826.37 1278.49 264.7"/><polygon class="cls-1" points="1266.76 285.03 641.67 285.03 329.12 826.37 641.67 1367.72 1266.76 1367.72 1579.3 826.37 1266.76 285.03"/><polygon class="cls-1" points="1255.02 305.35 653.4 305.35 352.59 826.37 653.4 1347.39 1255.02 1347.39 1555.84 826.37 1255.02 305.35"/><polygon class="cls-1" points="1243.29 325.67 665.13 325.67 376.06 826.37 665.13 1327.07 1243.29 1327.07 1532.37 826.37 1243.29 325.67"/><polygon class="cls-1" points="1231.56 346 676.87 346 399.52 826.37 676.87 1306.75 1231.56 1306.75 1508.9 826.37 1231.56 346"/><polygon class="cls-1" points="1219.82 366.32 688.6 366.32 422.99 826.37 688.6 1286.42 1219.82 1286.42 1485.43 826.37 1219.82 366.32"/><polygon class="cls-1" points="1208.09 386.64 700.34 386.64 446.46 826.37 700.34 1266.1 1208.09 1266.1 1461.97 826.37 1208.09 386.64"/><polygon class="cls-1" points="1196.36 406.97 712.07 406.97 469.93 826.37 712.07 1245.78 1196.36 1245.78 1438.5 826.37 1196.36 406.97"/><polygon class="cls-1" points="1184.62 427.29 723.8 427.29 493.39 826.37 723.8 1225.45 1184.62 1225.45 1415.03 826.37 1184.62 427.29"/><polygon class="cls-1" points="1172.89 447.62 735.54 447.62 516.86 826.37 735.54 1205.13 1172.89 1205.13 1391.56 826.37 1172.89 447.62"/><polygon class="cls-1" points="1161.15 467.94 747.27 467.94 540.33 826.37 747.27 1184.81 1161.15 1184.81 1368.1 826.37 1161.15 467.94"/><polygon class="cls-1" points="1149.42 488.26 759 488.26 563.8 826.37 759 1164.48 1149.42 1164.48 1344.63 826.37 1149.42 488.26"/><polygon class="cls-1" points="1137.69 508.58 770.74 508.58 587.26 826.37 770.74 1144.16 1137.69 1144.16 1321.16 826.37 1137.69 508.58"/><polygon class="cls-1" points="1125.95 528.91 782.47 528.91 610.73 826.37 782.47 1123.84 1125.95 1123.84 1297.69 826.37 1125.95 528.91"/><polygon class="cls-1" points="1114.22 549.23 794.21 549.23 634.2 826.37 794.21 1103.51 1114.22 1103.51 1274.23 826.37 1114.22 549.23"/><polygon class="cls-1" points="1102.49 569.55 805.94 569.55 657.67 826.37 805.94 1083.19 1102.49 1083.19 1250.76 826.37 1102.49 569.55"/><polygon class="cls-1" points="1090.75 589.88 817.67 589.88 681.13 826.37 817.67 1062.87 1090.75 1062.87 1227.29 826.37 1090.75 589.88"/><polygon class="cls-1" points="1079.02 610.2 829.41 610.2 704.6 826.37 829.41 1042.54 1079.02 1042.54 1203.82 826.37 1079.02 610.2"/><polygon class="cls-1" points="1067.29 630.53 841.14 630.53 728.07 826.37 841.14 1022.22 1067.29 1022.22 1180.36 826.37 1067.29 630.53"/><polygon class="cls-1" points="1055.55 650.85 852.87 650.85 751.54 826.37 852.87 1001.9 1055.55 1001.9 1156.89 826.37 1055.55 650.85"/><polygon class="cls-1" points="1043.82 671.17 864.61 671.17 775 826.37 864.61 981.57 1043.82 981.57 1133.42 826.37 1043.82 671.17"/><polygon class="cls-1" points="1032.08 691.5 876.34 691.5 798.47 826.37 876.34 961.25 1032.08 961.25 1109.95 826.37 1032.08 691.5"/><polygon class="cls-1" points="1020.35 711.82 888.08 711.82 821.94 826.37 888.08 940.93 1020.35 940.93 1086.49 826.37 1020.35 711.82"/><polygon class="cls-1" points="1008.62 732.14 899.81 732.14 845.4 826.37 899.81 920.6 1008.62 920.6 1063.02 826.37 1008.62 732.14"/><polygon class="cls-1" points="996.88 752.47 911.54 752.47 868.87 826.37 911.54 900.28 996.88 900.28 1039.55 826.37 996.88 752.47"/><polygon class="cls-1" points="985.15 772.79 923.28 772.79 892.34 826.37 923.28 879.96 985.15 879.96 1016.09 826.37 985.15 772.79"/><polygon class="cls-1" points="973.41 793.11 935.01 793.11 915.81 826.37 935.01 859.63 973.41 859.63 992.62 826.37 973.41 793.11"/><polygon class="cls-1" points="961.68 813.44 946.74 813.44 939.27 826.37 946.74 839.31 961.68 839.31 969.15 826.37 961.68 813.44"/></svg>